<?xml version="1.0" encoding="UTF-8" standalone="no"?><!DOCTYPE svg PUBLIC "-//W3C//DTD SVG 1.1//EN" "http://www.w3.org/Graphics/SVG/1.1/DTD/svg11.dtd"><svg width="100%" height="100%" viewBox="0 0 350 88" version="1.1" xmlns="http://www.w3.org/2000/svg" xmlns:xlink="http://www.w3.org/1999/xlink" xml:space="preserve" xmlns:serif="http://www.serif.com/" style="fill-rule:evenodd;clip-rule:evenodd;stroke-linejoin:round;stroke-miterlimit:2;"><g><path d="M343.663,0l-74.567,0c-3.567,0 -6.596,2.821 -6.596,6.296l0,74.904c0,3.479 1.988,6.3 5.554,6.3l74.567,0c3.571,0 7.379,-2.821 7.379,-6.3l0,-74.904c0,-3.475 -2.767,-6.296 -6.337,-6.296" style="fill:none;"/><path d="M343.663,0l-74.567,0c-3.567,0 -6.596,2.821 -6.596,6.296l0,74.904c0,3.479 1.988,6.3 5.554,6.3l74.567,0c3.571,0 7.379,-2.821 7.379,-6.3l0,-74.904c0,-3.475 -2.767,-6.296 -6.337,-6.296Zm-47.829,33.333l11.779,0l0,6.004l0.129,0c1.796,-3.238 7.1,-6.525 13.658,-6.525c12.588,0 16.1,6.683 16.1,19.062l0,23.125l-12.5,0l0,-20.846c0,-5.542 -2.212,-10.404 -7.387,-10.404c-6.283,0 -9.279,4.254 -9.279,11.237l0,20.013l-12.5,0l0,-41.667Zm-20.833,41.667l12.5,0l0,-41.667l-12.5,0l0,41.667Zm14.062,-56.25c0,4.317 -3.496,7.813 -7.812,7.813c-4.317,0 -7.812,-3.496 -7.812,-7.813c0,-4.317 3.496,-7.812 7.812,-7.812c4.317,0 7.812,3.496 7.812,7.812Z" style="fill:#006097;"/></g><g><path d="M250,75l-11.667,0l0,-4.962l-0.125,0c-2.596,3.008 -7.104,5.483 -14.746,5.483c-10.417,0 -19.387,-7.838 -19.387,-21.308c0,-12.833 8.842,-21.4 19.779,-21.4c6.771,0 10.975,2.408 13.521,5.483l0.125,0l0,-25.796l12.5,0l0,62.5Zm-23.004,-32.812c-7.146,0 -11.162,5.096 -11.162,11.871c0,6.779 4.017,12.088 11.162,12.088c7.154,0 11.338,-5.171 11.338,-12.088c0,-7.108 -4.183,-11.871 -11.338,-11.871Z" style="fill:#006097;fill-rule:nonzero;"/><path d="M198.588,68.287c-2.95,3.821 -9.025,7.233 -18.833,7.233c-13.088,0 -21.421,-8.663 -21.421,-22.279c0,-12.096 7.55,-20.429 21.787,-20.429c12.296,0 19.879,8.075 19.879,22.279c0,1.421 -0.229,2.825 -0.229,2.825l-29.642,0l0.071,1.288c0.821,3.592 3.533,7.983 9.758,7.983c5.433,0 9.158,-2.921 10.842,-5.208l7.787,6.308Zm-10.617,-18.288c0.083,-4.396 -3.142,-8.854 -8.225,-8.854c-6.05,0 -9.279,4.725 -9.617,8.854l17.842,0Z" style="fill:#006097;fill-rule:nonzero;"/><path d="M158.333,33.333l-14.583,0l-14.583,16.667l0,-37.5l-12.5,0l0,62.5l12.5,0l0,-20.833l15.412,20.833l14.758,0l-17.671,-22.779l16.667,-18.887Z" style="fill:#006097;fill-rule:nonzero;"/><path d="M66.667,33.333l11.779,0l0,6.004l0.129,0c1.796,-3.238 7.1,-6.525 13.658,-6.525c12.588,0 16.1,7.988 16.1,19.062l0,23.125l-12.5,0l0,-20.846c0,-6.133 -2.212,-10.404 -7.388,-10.404c-6.283,0 -9.279,4.975 -9.279,11.237l0,20.013l-12.5,0l0,-41.667Z" style="fill:#006097;fill-rule:nonzero;"/><path d="M45.833,75l12.5,0l0,-41.667l-12.5,0l0,41.667Zm6.254,-48.75c4.142,0 7.496,-3.358 7.496,-7.5c0,-4.142 -3.354,-7.5 -7.496,-7.5c-4.137,0 -7.504,3.358 -7.504,7.5c0,4.142 3.367,7.5 7.504,7.5Z" style="fill:#006097;fill-rule:nonzero;"/><path d="M12.5,12.5l-12.5,0l0,62.5l37.5,0l0,-12.5l-25,0l0,-50Z" style="fill:#006097;fill-rule:nonzero;"/></g></svg>