<?xml version="1.0" encoding="UTF-8" standalone="no"?><!DOCTYPE svg PUBLIC "-//W3C//DTD SVG 1.1//EN" "http://www.w3.org/Graphics/SVG/1.1/DTD/svg11.dtd"><svg width="100%" height="100%" viewBox="0 0 521 96" version="1.1" xmlns="http://www.w3.org/2000/svg" xmlns:xlink="http://www.w3.org/1999/xlink" xml:space="preserve" xmlns:serif="http://www.serif.com/" style="fill-rule:evenodd;clip-rule:evenodd;stroke-linejoin:round;stroke-miterlimit:2;"><path d="M74.083,34.837l0.008,0.004l-32.425,35.992l-41.667,-45.863l-0,-19.783c0.002,-1.471 1.213,-2.68 2.683,-2.68c0.625,0 1.231,0.219 1.713,0.618l46.229,38.387c4.451,3.698 10.966,3.698 15.417,0l8.042,-6.675Z" style="fill:url(#_Linear1);"/><path d="M91.667,20.233l-17.583,14.604l0.008,0.004l-23.283,20.567c-3.948,3.485 -9.908,3.574 -13.958,0.208l-36.85,-30.646l-0,58.792c-0,0.001 -0,0.003 -0,0.004c0,6.62 5.447,12.067 12.067,12.067c0.001,0 0.003,-0 0.004,-0l79.596,0l8.333,-37.8l-8.333,-37.8Z" style="fill:url(#_Radial2);fill-rule:nonzero;"/><path d="M91.667,20.25l0,75.583l12.929,0c6.667,0 12.071,-5.404 12.071,-12.067l0,-78.579c-0.002,-1.471 -1.213,-2.68 -2.683,-2.68c-0.625,0 -1.231,0.219 -1.713,0.618l-20.604,17.125Z" style="fill:url(#_Linear3);"/><path d="M125.216,62.747l0,15.271l10.667,0l0,-14.6c-0,-0.006 -0,-0.011 -0,-0.017c0,-2.926 2.404,-5.335 5.329,-5.342l10.933,0c5.102,-0.002 9.997,-2.045 13.588,-5.671c3.606,-3.632 5.631,-8.548 5.629,-13.667c0,-5.117 -2.025,-10.042 -5.625,-13.671c-3.599,-3.621 -8.499,-5.659 -13.604,-5.658l-26.917,0l0,19.083l10.667,0l0,-8.996l15.542,0c2.417,0 4.725,0.967 6.433,2.683c3.536,3.553 3.536,9.381 0,12.933c-1.708,1.717 -4.017,2.683 -6.433,2.683l-11.292,0c-3.956,-0.002 -7.753,1.582 -10.533,4.396c-1.381,1.396 -2.479,3.045 -3.233,4.858c-0.759,1.809 -1.15,3.751 -1.15,5.713Zm47.792,15.271l0,-23.263c0,-9.496 5.508,-17.046 16.542,-17.046c1.77,-0.026 3.537,0.17 5.258,0.583l0,9.567c-1.254,-0.083 -2.333,-0.083 -2.842,-0.083c-5.842,0 -8.354,2.692 -8.354,8.146l0,22.096l-10.604,0Zm24.975,-19.725c0,-11.675 8.767,-20.571 20.971,-20.571c12.204,0 20.971,8.896 20.971,20.571c0,11.675 -8.767,20.654 -20.971,20.654c-12.204,0 -20.971,-8.992 -20.971,-20.654Zm31.492,0c0,-6.633 -4.433,-11.342 -10.521,-11.342c-6.104,0 -10.521,4.696 -10.521,11.342c0,6.717 4.429,11.342 10.521,11.342c6.1,0 10.521,-4.638 10.521,-11.342Zm44.358,0c0,-11.675 8.767,-20.571 20.967,-20.571c12.192,0 20.958,8.896 20.958,20.571c0,11.675 -8.767,20.654 -20.958,20.654c-12.2,0 -20.967,-8.992 -20.967,-20.654Zm31.475,0c0,-6.633 -4.429,-11.342 -10.517,-11.342c-6.092,0 -10.521,4.696 -10.521,11.342c0,6.717 4.429,11.342 10.521,11.342c6.088,0 10.521,-4.638 10.521,-11.342l-0.004,0Zm15.962,19.725l0,-22.417c0,-10.412 6.596,-17.892 18.375,-17.892c11.692,0 18.292,7.467 18.292,17.892l0,22.417l-10.521,0l0,-21.583c0,-5.792 -2.596,-9.412 -7.771,-9.412c-5.179,0 -7.771,3.612 -7.771,9.412l0,21.583l-10.604,0Zm-50.613,-30.983l-11.446,0l0,14.7c0,5.125 1.833,7.471 7.096,7.471c0.5,0 1.75,0 3.342,-0.083l0,8.646c-2.167,0.583 -4.087,0.929 -6.183,0.929c-8.85,0 -14.871,-5.375 -14.871,-15.533l0,-16.125l-7.108,0l0,-8.483l1.779,0c0.699,-0.002 1.391,-0.139 2.038,-0.404c1.311,-0.547 2.352,-1.594 2.892,-2.908c0.267,-0.65 0.403,-1.347 0.4,-2.05l0,-7.992l10.604,0l0,13.354l11.446,0l0,8.479l0.012,0Z" style="fill:#6d4aff;fill-rule:nonzero;"/><path d="M374.493,20.884l14.896,0l13.962,34.263c1.246,2.875 2.308,5.804 3.204,8.792l0.146,0c0.896,-2.987 1.962,-5.933 3.204,-8.792l13.963,-34.263l14.896,0l0,57.142l-10.792,0l0,-38.279c-0.011,-1.261 0.049,-2.521 0.179,-3.775l-0.179,0c-0.333,1.346 -0.775,2.667 -1.337,3.942l-15.471,37.446l-8.95,0l-15.517,-37.446c-0.563,-1.28 -1.039,-2.597 -1.425,-3.942l-0.167,0c0.121,1.25 0.179,2.513 0.167,3.775l0,38.292l-10.779,0l0,-57.154Zm101.179,19.442c3.125,1.633 5.708,4.138 7.442,7.196c1.852,3.326 2.79,7.085 2.717,10.892l0,19.608l-9.45,0l-0.671,-5.888c-1.236,2.133 -3.043,3.879 -5.217,5.042c-2.339,1.206 -4.944,1.808 -7.575,1.75c-3.359,0.037 -6.664,-0.857 -9.546,-2.583c-2.911,-1.759 -5.286,-4.281 -6.867,-7.292c-1.722,-3.307 -2.586,-6.993 -2.512,-10.721c-0.047,-3.673 0.896,-7.292 2.729,-10.475c1.79,-3.1 4.396,-5.651 7.533,-7.375c3.253,-1.801 6.919,-2.725 10.637,-2.679c3.747,-0.071 7.453,0.797 10.779,2.525Zm-3.458,26.375c2.058,-1.95 3.075,-4.704 3.075,-8.375c0.128,-2.999 -0.929,-5.931 -2.942,-8.158c-0.96,-0.999 -2.112,-1.793 -3.388,-2.333c-1.273,-0.546 -2.644,-0.827 -4.029,-0.825c-2.8,-0.003 -5.482,1.139 -7.421,3.158c-1.914,2.284 -2.964,5.17 -2.967,8.15c0,2.979 1.054,5.863 2.967,8.15c1.917,2.062 4.627,3.208 7.442,3.146c2.711,0.039 5.328,-1.009 7.262,-2.908l0,-0.004Zm19.442,-36.217c-0.632,-0.581 -1.137,-1.286 -1.483,-2.071c-0.343,-0.784 -0.514,-1.632 -0.5,-2.487c-0.018,-1.746 0.703,-3.421 1.983,-4.608c2.606,-2.566 6.849,-2.566 9.454,0c0.629,0.588 1.13,1.301 1.471,2.092c0.333,0.8 0.513,1.646 0.5,2.517c0.024,1.731 -0.694,3.393 -1.971,4.563c-2.632,2.506 -6.823,2.506 -9.454,-0l0,-0.004Zm10.05,47.538l-10.625,0l0,-39.375l10.625,0l0,39.375Zm18.379,0l-10.638,0l0,-57.138l10.638,0l0,57.142l0,-0.004Z" style="fill:#6d4aff;fill-rule:nonzero;"/><defs><linearGradient id="_Linear1" x1="0" y1="0" x2="1" y2="0" gradientUnits="userSpaceOnUse" gradientTransform="matrix(-39.129167,-135.920833,135.920833,-39.129167,43.779167,71.466666)"><stop offset="0" style="stop-color:#e3d9ff;stop-opacity:1"/><stop offset="1" style="stop-color:#7341ff;stop-opacity:1"/></linearGradient><radialGradient id="_Radial2" cx="0" cy="0" r="1" gradientUnits="userSpaceOnUse" gradientTransform="matrix(116.6175,0,0,109.920833,99.562501,29.487499)"><stop offset="0" style="stop-color:#6d4aff;stop-opacity:1"/><stop offset="0.56" style="stop-color:#6d4aff;stop-opacity:1"/><stop offset="0.99" style="stop-color:#aa8eff;stop-opacity:1"/><stop offset="1" style="stop-color:#aa8eff;stop-opacity:1"/></radialGradient><linearGradient id="_Linear3" x1="0" y1="0" x2="1" y2="0" gradientUnits="userSpaceOnUse" gradientTransform="matrix(-90,-194.154167,194.154167,-90,154.395834,156.341666)"><stop offset="0" style="stop-color:#e3d9ff;stop-opacity:1"/><stop offset="0.27" style="stop-color:#e3d9ff;stop-opacity:1"/><stop offset="1" style="stop-color:#7341ff;stop-opacity:1"/></linearGradient></defs></svg>