<?xml version="1.0" encoding="UTF-8" standalone="no"?><!DOCTYPE svg PUBLIC "-//W3C//DTD SVG 1.1//EN" "http://www.w3.org/Graphics/SVG/1.1/DTD/svg11.dtd"><svg width="100%" height="100%" viewBox="0 0 2188 525" version="1.1" xmlns="http://www.w3.org/2000/svg" xmlns:xlink="http://www.w3.org/1999/xlink" xml:space="preserve" xmlns:serif="http://www.serif.com/" style="fill-rule:evenodd;clip-rule:evenodd;stroke-linejoin:round;stroke-miterlimit:2;"><path d="M778.334,310.367l-0.679,0l-42.8,-172.775l-51.571,0l-43.692,170.679l-0.708,0l-39.529,-170.575l-54.975,0l66.308,250.575l55.783,0l41.729,-170.546l0.708,0l42.458,170.546l54.738,0l67.25,-250.575l-54.029,0l-40.996,172.667l0.004,0.004Zm263.062,-87.904c-5.275,-6.721 -12.229,-11.929 -20.158,-15.104c-10.467,-3.95 -21.617,-5.792 -32.8,-5.421c-10.025,0.154 -19.879,2.617 -28.796,7.2c-10.175,5.1 -18.608,13.096 -24.242,22.983l-1.046,0l0,-94.425l-49.738,0l0,250.575l49.738,0l0,-95.104c0,-18.483 3.038,-31.762 9.108,-39.842c6.075,-8.079 15.9,-12.112 29.479,-12.096c11.908,0 20.233,3.692 24.896,11.075c4.658,7.383 7.017,18.533 7.017,33.508l0,102.458l49.737,0l0,-111.596c0.079,-10.312 -0.925,-20.604 -2.983,-30.708c-1.617,-8.496 -5.104,-16.525 -10.208,-23.508l-0.004,0.004Zm205.233,125.417l0,-94.238c0,-11.013 -2.45,-19.85 -7.354,-26.517c-4.921,-6.713 -11.421,-12.108 -18.925,-15.708c-8.092,-3.838 -16.742,-6.375 -25.629,-7.512c-9.188,-1.275 -18.45,-1.921 -27.721,-1.938c-10.083,-0.008 -20.142,0.979 -30.025,2.958c-9.454,1.796 -18.533,5.175 -26.858,10c-7.892,4.6 -14.608,10.958 -19.633,18.587c-5.479,8.754 -8.517,18.812 -8.796,29.133l49.737,0c0.942,-9.817 4.242,-16.858 9.846,-20.942c5.604,-4.083 13.454,-6.388 23.3,-6.388c4.158,-0.021 8.317,0.271 12.433,0.863c3.596,0.479 7.058,1.671 10.183,3.508c2.958,1.787 5.383,4.337 7.017,7.383c1.933,3.979 2.833,8.383 2.617,12.8c0.258,2.183 -0.025,4.396 -0.821,6.442c-0.792,2.05 -2.075,3.875 -3.733,5.312c-3.958,3.008 -8.537,5.092 -13.404,6.1c-6.342,1.542 -12.792,2.604 -19.292,3.167c-7.279,0.717 -14.642,1.65 -22.092,2.8c-7.508,1.183 -14.946,2.775 -22.279,4.762c-7.021,1.812 -13.675,4.833 -19.658,8.925c-5.867,4.154 -10.683,9.621 -14.058,15.971c-3.887,7.9 -5.75,16.646 -5.417,25.446c-0.217,8.321 1.4,16.587 4.738,24.217c2.967,6.575 7.454,12.354 13.088,16.858c5.825,4.55 12.5,7.887 19.633,9.817c7.887,2.171 16.033,3.237 24.212,3.167c11.167,0 22.275,-1.646 32.958,-4.896c10.683,-3.246 20.354,-9.175 28.087,-17.225c0.221,3.008 0.633,5.996 1.229,8.954c0.575,2.908 1.333,5.775 2.279,8.583l50.521,0c-2.792,-5.208 -4.471,-10.938 -4.921,-16.833c-0.912,-7.821 -1.329,-15.688 -1.258,-23.562l-0.004,0.004Zm-49.738,-29.842c-0.054,3.758 -0.342,7.508 -0.862,11.229c-0.658,4.888 -2.267,9.604 -4.737,13.875c-2.9,4.883 -7.013,8.929 -11.938,11.754c-5.358,3.279 -12.958,4.921 -22.8,4.921c-3.883,0.004 -7.758,-0.354 -11.571,-1.071c-3.479,-0.592 -6.812,-1.846 -9.817,-3.692c-2.825,-1.758 -5.125,-4.233 -6.675,-7.175c-1.737,-3.483 -2.583,-7.342 -2.463,-11.229c-0.142,-4.008 0.704,-7.992 2.463,-11.596c1.575,-2.962 3.792,-5.542 6.492,-7.537c2.879,-2.088 6.079,-3.688 9.475,-4.742c3.621,-1.167 7.308,-2.104 11.05,-2.8c3.979,-0.679 7.854,-1.308 11.908,-1.754c4.058,-0.446 7.854,-1.075 11.412,-1.754c3.446,-0.654 6.85,-1.529 10.183,-2.617c2.892,-0.896 5.567,-2.383 7.854,-4.371l0.029,18.558l-0.004,0Zm142.8,-165.625l-49.737,0l0,54.425l-30.312,0l0,33.35l30.158,0l0,107.042c-0.329,7.625 1.238,15.217 4.554,22.092c2.837,5.45 7.158,9.988 12.462,13.088c5.667,3.179 11.888,5.254 18.325,6.125c7.254,1.071 14.579,1.6 21.908,1.571c4.946,0 9.946,0 15.104,-0.342c4.7,-0.179 9.388,-0.65 14.033,-1.413l0,-38.692c-2.437,0.517 -4.9,0.875 -7.383,1.071c-2.617,0.238 -5.233,0.367 -8.062,0.367c-8.404,0 -14.029,-1.438 -16.858,-4.242c-2.829,-2.8 -4.188,-8.404 -4.188,-16.833l0,-89.842l36.492,0l0,-33.35l-36.571,0l0.079,-54.425l-0.004,0.008Zm205.942,156.333c-3.267,-5.692 -7.733,-10.604 -13.088,-14.396c-5.625,-3.979 -11.796,-7.121 -18.325,-9.321c-6.883,-2.304 -13.979,-4.292 -21.229,-5.942c-7.25,-1.65 -13.9,-3.167 -20.679,-4.554c-6.112,-1.233 -12.154,-2.812 -18.088,-4.738c-4.667,-1.429 -9.004,-3.762 -12.775,-6.858c-1.592,-1.317 -2.867,-2.979 -3.717,-4.863c-0.854,-1.883 -1.262,-3.937 -1.204,-6c-0.188,-3.196 0.779,-6.354 2.721,-8.9c1.846,-2.258 4.196,-4.05 6.858,-5.237c2.846,-1.196 5.854,-1.963 8.929,-2.279c3.046,-0.271 6.104,-0.383 9.163,-0.342c8.029,-0.204 15.987,1.537 23.196,5.079c6.517,3.375 10.158,9.867 10.837,19.475l47.383,0c-0.513,-9.879 -3.471,-19.479 -8.612,-27.933c-4.6,-7.192 -10.779,-13.242 -18.062,-17.696c-7.621,-4.596 -15.996,-7.804 -24.737,-9.475c-9.4,-1.892 -18.971,-2.829 -28.563,-2.804c-9.658,-0.008 -19.296,0.867 -28.796,2.617c-8.879,1.583 -17.425,4.671 -25.258,9.137c-7.433,4.258 -13.654,10.35 -18.062,17.696c-4.879,8.788 -7.246,18.75 -6.833,28.796c-0.225,7.05 1.479,14.029 4.921,20.183c3.271,5.496 7.746,10.175 13.088,13.692c5.671,3.763 11.838,6.713 18.325,8.771c6.883,2.225 13.979,4.162 21.204,5.783c14.121,2.737 28.025,6.5 41.596,11.258c9.946,3.717 14.921,9.329 14.921,16.833c0.154,3.925 -0.954,7.8 -3.167,11.046c-2.067,2.887 -4.75,5.283 -7.854,7.017c-3.279,1.804 -6.808,3.1 -10.471,3.85c-3.625,0.812 -7.329,1.233 -11.046,1.254c-4.783,0.008 -9.55,-0.579 -14.187,-1.754c-4.333,-1.075 -8.438,-2.921 -12.121,-5.446c-3.533,-2.488 -6.471,-5.725 -8.612,-9.475c-2.304,-4.254 -3.45,-9.037 -3.325,-13.875l-47.542,0c0.05,10.667 2.892,21.137 8.246,30.367c4.846,7.887 11.45,14.554 19.292,19.475c8.258,5.058 17.354,8.604 26.858,10.471c10.142,2.125 20.475,3.188 30.838,3.167c10.196,0.008 20.367,-0.992 30.367,-2.983c9.408,-1.808 18.392,-5.358 26.492,-10.471c8.35,-5.175 15.163,-12.496 19.725,-21.2c4.563,-8.7 6.708,-18.467 6.217,-28.279c0.233,-7.342 -1.454,-14.613 -4.896,-21.1l0.079,-0.054l-0.004,0.008Zm98.925,-171.096l-94.708,250.575l55.417,0l19.658,-55.783l93.662,0l18.925,55.783l57.221,0l-93.733,-250.521l-56.446,-0.054l0.004,0Zm-5.233,153.717l32.65,-91.938l0.675,0l31.596,91.938l-64.925,0l0.004,0Zm327.479,-59.946c-6.842,-8.958 -15.592,-16.275 -25.625,-21.413c-11.425,-5.646 -24.062,-8.412 -36.804,-8.062c-10.658,-0.133 -21.217,2.137 -30.888,6.65c-9.617,4.75 -17.638,12.225 -23.037,21.492l-0.713,0l0,-23.246l-47.379,0l0,244.971l49.742,0l0,-85.971l0.675,0c5.85,8.688 13.908,15.646 23.35,20.158c9.704,4.617 20.312,6.958 31.042,6.858c12.1,0.229 24.079,-2.462 34.896,-7.854c9.742,-4.988 18.263,-12.067 24.929,-20.733c6.804,-8.917 11.858,-19.033 14.913,-29.817c3.283,-11.404 4.929,-23.213 4.896,-35.079c0.05,-12.513 -1.596,-24.971 -4.896,-37.042c-3.021,-11.175 -8.142,-21.667 -15.104,-30.917l0.004,0.004Zm-31.908,88.087c-1.233,6.504 -3.679,12.721 -7.188,18.325c-5.954,8.35 -14.721,14.254 -24.704,16.613c-9.967,2.362 -20.467,1.012 -29.513,-3.788c-5.467,-3.133 -10.104,-7.533 -13.508,-12.829c-3.542,-5.612 -6.025,-11.821 -7.362,-18.325c-1.529,-7.025 -2.292,-14.196 -2.275,-21.387c-0.017,-7.308 0.675,-14.604 2.067,-21.779c1.267,-6.592 3.717,-12.896 7.221,-18.612c3.367,-5.342 7.933,-9.825 13.333,-13.088c6.217,-3.637 13.317,-5.454 20.521,-5.233c7.083,-0.192 14.062,1.625 20.154,5.233c5.471,3.342 10.087,7.9 13.508,13.325c3.612,5.758 6.162,12.112 7.533,18.771c1.546,7.042 2.308,14.233 2.275,21.442c0.05,7.158 -0.608,14.304 -1.962,21.333l-0.104,0l0.004,0Zm245.575,-57.042c-2.987,-11.225 -8.108,-21.767 -15.104,-31.046c-6.825,-8.958 -15.571,-16.275 -25.592,-21.413c-11.442,-5.637 -24.079,-8.404 -36.842,-8.062c-10.658,-0.125 -21.2,2.146 -30.867,6.65c-9.617,4.758 -17.638,12.229 -23.054,21.492l-0.675,0l0,-23.246l-47.483,0l0,244.971l49.721,0l0,-85.971l0.712,0c5.833,8.679 13.888,15.637 23.333,20.158c9.688,4.617 20.312,6.958 31.042,6.858c12.1,0.229 24.079,-2.462 34.912,-7.854c9.742,-4.988 18.246,-12.067 24.896,-20.733c6.804,-8.917 11.875,-19.033 14.929,-29.817c3.3,-11.4 4.95,-23.208 4.912,-35.079c0.104,-12.458 -1.492,-24.875 -4.737,-36.908l-0.104,0Zm-47.117,57.042c-1.217,6.508 -3.662,12.725 -7.188,18.325c-3.679,5.629 -8.696,10.25 -14.617,13.45c-5.904,3.2 -12.533,4.875 -19.254,4.875c-6.721,0 -13.333,-1.679 -19.254,-4.875c-5.904,-3.2 -10.921,-7.825 -14.6,-13.45c-3.525,-5.617 -6.025,-11.825 -7.363,-18.325c-1.512,-7.025 -2.275,-14.196 -2.275,-21.387c-0.017,-7.312 0.675,-14.604 2.1,-21.779c1.354,-6.613 3.908,-12.921 7.533,-18.613c3.367,-5.329 7.933,-9.808 13.317,-13.088c6.217,-3.637 13.333,-5.454 20.521,-5.233c7.083,-0.196 14.079,1.621 20.154,5.233c5.488,3.342 10.121,7.9 13.542,13.325c3.612,5.758 6.162,12.113 7.533,18.771c1.546,7.042 2.308,14.233 2.275,21.442c-0.033,7.167 -0.783,14.312 -2.221,21.333l-0.208,0l0.004,-0.004Z" style="fill:#25d366;fill-rule:nonzero;"/><path d="M516.024,252.858c-2.429,-66.517 -30.458,-129.525 -78.238,-175.863c-47.779,-46.342 -111.613,-72.433 -178.171,-72.825l-1.258,-0c-44.825,-0.033 -88.879,11.604 -127.842,33.767c-38.958,22.162 -71.479,54.088 -94.354,92.629c-22.879,38.546 -35.325,82.379 -36.121,127.196c-0.796,44.817 10.092,89.062 31.592,128.396l-22.829,136.596c-0.038,0.279 -0.013,0.562 0.067,0.833c0.083,0.271 0.221,0.521 0.404,0.733c0.188,0.212 0.417,0.383 0.671,0.5c0.258,0.117 0.537,0.179 0.821,0.179l0.392,0l135.104,-30.054c34.908,16.758 73.133,25.454 111.858,25.446l7.383,0c34.062,-0.971 67.596,-8.679 98.663,-22.679c31.067,-14 59.054,-34.012 82.346,-58.887c23.292,-24.875 41.429,-54.112 53.358,-86.033c11.929,-31.917 17.421,-65.883 16.158,-99.937l-0.004,0.004Zm-251.804,222.642l-6.1,0c-34.221,0.042 -67.954,-8.146 -98.35,-23.875l-6.912,-3.613l-91.621,21.65l16.913,-92.696l-3.925,-6.65c-18.754,-31.975 -28.854,-68.283 -29.308,-105.35c-0.454,-37.067 8.754,-73.612 26.721,-106.037c17.967,-32.425 44.067,-59.613 75.733,-78.879c31.667,-19.271 67.808,-29.958 104.863,-31.013l6.204,0c55.946,0.167 109.588,22.304 149.367,61.642c39.779,39.338 62.512,92.729 63.304,148.671c0.787,55.942 -20.429,109.95 -59.083,150.396c-38.654,40.446 -91.65,64.087 -147.567,65.833l-0.238,-0.079Z" style="fill:#25d366;fill-rule:nonzero;"/><path d="M168.378,137.679c-3.188,0.062 -6.333,0.763 -9.246,2.062c-2.912,1.3 -5.537,3.171 -7.717,5.5c-6.15,6.308 -23.35,21.492 -24.346,53.375c-0.996,31.883 21.283,63.429 24.396,67.854c3.117,4.425 42.592,73.3 107.617,101.229c38.221,16.467 54.975,19.292 65.837,19.292c4.479,0 7.854,-0.471 11.388,-0.679c11.912,-0.733 38.796,-14.5 44.658,-29.475c5.862,-14.975 6.258,-28.062 4.712,-30.679c-1.542,-2.617 -5.783,-4.504 -12.171,-7.854c-6.388,-3.35 -37.721,-20.104 -43.613,-22.458c-2.183,-1.017 -4.533,-1.629 -6.938,-1.804c-1.562,0.083 -3.083,0.542 -4.429,1.346c-1.346,0.804 -2.475,1.921 -3.292,3.258c-5.233,6.521 -17.25,20.679 -21.283,24.767c-0.879,1.012 -1.967,1.833 -3.183,2.4c-1.217,0.567 -2.542,0.875 -3.888,0.896c-2.475,-0.108 -4.896,-0.763 -7.096,-1.913c-18.979,-8.062 -36.288,-19.604 -51.021,-34.033c-13.767,-13.571 -25.45,-29.104 -34.658,-46.1c-3.558,-6.596 0,-10 3.246,-13.087c3.246,-3.092 6.729,-7.354 10.079,-11.05c2.75,-3.154 5.042,-6.675 6.808,-10.471c0.912,-1.758 1.375,-3.721 1.342,-5.704c-0.029,-1.983 -0.554,-3.929 -1.525,-5.658c-1.542,-3.3 -13.087,-35.733 -18.508,-48.742c-4.396,-11.125 -9.633,-11.492 -14.217,-11.833c-3.771,-0.263 -8.088,-0.392 -12.408,-0.525l-0.55,0" style="fill:#25d366;fill-rule:nonzero;"/></svg>